<?xml version="1.0" encoding="UTF-8"?>
<svg width="366px" height="282px" viewBox="0 0 366 282" version="1.1" xmlns="http://www.w3.org/2000/svg" xmlns:xlink="http://www.w3.org/1999/xlink">
    <title>Dashes Yellow</title>
    <defs>
        <filter id="filter-1">
            <feColorMatrix in="SourceGraphic" type="matrix" values="0 0 0 0 0.996078 0 0 0 0 0.858824 0 0 0 0 0.000000 0 0 0 1.000000 0"></feColorMatrix>
        </filter>
    </defs>
    <g id="Homepage-&amp;-Audience-Wizard" stroke="none" stroke-width="1" fill="none" fill-rule="evenodd">
        <g id="Homepage_C_1440" transform="translate(-1048.000000, -224.000000)">
            <g id="Dashes-Yellow" transform="translate(70.000000, 224.000000)" filter="url(#filter-1)">
                <g transform="translate(1161.000000, 141.000000) rotate(90.000000) translate(-1161.000000, -141.000000) translate(1020.000000, -42.000000)">
                    <polygon id="Fill-1" fill="#FFFFFF" points="5 18 6 18 6 4.26325641e-14 5 4.26325641e-14"></polygon>
                    <polygon id="Fill-2" fill="#FFFFFF" points="30 18 31 18 31 4.26325641e-14 30 4.26325641e-14"></polygon>
                    <polygon id="Fill-3" fill="#FFFFFF" points="53 18 54 18 54 4.26325641e-14 53 4.26325641e-14"></polygon>
                    <polygon id="Fill-4" fill="#FFFFFF" points="80 18 81 18 81 5.68434189e-14 80 5.68434189e-14"></polygon>
                    <polygon id="Fill-5" fill="#FFFFFF" points="105 18 106 18 106 5.68434189e-14 105 5.68434189e-14"></polygon>
                    <polygon id="Fill-6" fill="#FFFFFF" points="131 18 132 18 132 5.68434189e-14 131 5.68434189e-14"></polygon>
                    <polygon id="Fill-7" fill="#FFFFFF" points="153 18 154 18 154 5.68434189e-14 153 5.68434189e-14"></polygon>
                    <polygon id="Fill-8" fill="#FFFFFF" points="178 18 179 18 179 5.68434189e-14 178 5.68434189e-14"></polygon>
                    <polygon id="Fill-9" fill="#FFFFFF" points="205 18 206 18 206 5.68434189e-14 205 5.68434189e-14"></polygon>
                    <polygon id="Fill-10" fill="#FFFFFF" points="228 18 229 18 229 5.68434189e-14 228 5.68434189e-14"></polygon>
                    <polygon id="Fill-11" fill="#FFFFFF" points="253 18 254 18 254 5.68434189e-14 253 5.68434189e-14"></polygon>
                    <polygon id="Fill-12" fill="#FFFFFF" points="280 18 281 18 281 5.68434189e-14 280 5.68434189e-14"></polygon>
                    <polygon id="Fill-13" fill="#FFFFFF" points="6 25.0290115 5.12837588 25 5 42.9701827 5.87162412 43"></polygon>
                    <polygon id="Fill-14" fill="#FFFFFF" points="30.5 26.5323858 29.6658904 26.5 29.5 41.4669395 30.3344679 41.5"></polygon>
                    <polygon id="Fill-15" fill="#FFFFFF" points="54.5 26.5406725 53.7004864 26.5 53.5 41.4593275 54.2991661 41.5"></polygon>
                    <polygon id="Fill-16" fill="#FFFFFF" points="81.5 26.5490352 80.7335693 26.5 80.5 41.4509648 81.2664307 41.5"></polygon>
                    <polygon id="Fill-17" fill="#FFFFFF" points="104.5 26.5567974 103.764812 26.5 103.5 41.4432026 104.235188 41.5"></polygon>
                    <polygon id="Fill-18" fill="#FFFFFF" points="128.5 26.5646315 127.79408 26.5 127.5 41.4353685 128.206238 41.5"></polygon>
                    <polygon id="Fill-19" fill="#FFFFFF" points="152.5 26.5725439 151.821882 26.5 151.5 41.4267652 152.178118 41.5"></polygon>
                    <polygon id="Fill-20" fill="#FFFFFF" points="179.5 26.5805332 178.847996 26.5 178.5 41.4194668 179.152004 41.5"></polygon>
                    <polygon id="Fill-21" fill="#FFFFFF" points="206.5 26.5885964 205.873055 26.5 205.5 41.4121012 206.126945 41.5"></polygon>
                    <polygon id="Fill-22" fill="#FFFFFF" points="229.5 26.5960415 228.896853 26.5 228.5 41.4039585 229.103433 41.5"></polygon>
                    <polygon id="Fill-23" fill="#FFFFFF" points="257.5 26.6042645 256.91904 26.5 256.5 41.3957355 257.08096 41.5"></polygon>
                    <polygon id="Fill-24" fill="#FFFFFF" points="276.5 41.3881337 277.059401 41.5 277.5 26.6118663 276.940599 26.5"></polygon>
                    <polygon id="Fill-25" fill="#FFFFFF" points="4.5 53.5564985 3.70717489 53.5 3.5 68.4428208 4.29282511 68.5"></polygon>
                    <polygon id="Fill-26" fill="#FFFFFF" points="30.5 53.5755771 29.7627095 53.5 29.5 68.4244229 30.2375746 68.5"></polygon>
                    <polygon id="Fill-27" fill="#FFFFFF" points="54.5 53.5950157 53.8124155 53.5 53.5 68.4049843 54.187314 68.5"></polygon>
                    <polygon id="Fill-28" fill="#FFFFFF" points="81.5 53.6134348 80.8582128 53.5 80.5 68.3865652 81.1417872 68.5"></polygon>
                    <polygon id="Fill-29" fill="#FFFFFF" points="104.5 53.6322178 103.899802 53.5 103.5 68.3684893 104.100198 68.5"></polygon>
                    <polygon id="Fill-30" fill="#FFFFFF" points="128.5 53.6506497 127.937707 53.5 127.5 68.3493503 128.062056 68.5"></polygon>
                    <polygon id="Fill-31" fill="#FFFFFF" points="152.5 53.66875 151.97305 53.5 151.5 68.33125 152.02695 68.5"></polygon>
                    <polygon id="Fill-32" fill="#FFFFFF" points="181.5 51.6872086 179.027893 51.5 176.5 66.3127914 178.972107 66.5"></polygon>
                    <polygon id="Fill-33" fill="#FFFFFF" points="204.5 51.7053182 202.178609 51.5 199.5 66.2954178 201.821391 66.5"></polygon>
                    <polygon id="Fill-34" fill="#FFFFFF" points="231.5 51.7223269 229.318662 51.5 226.5 66.2769296 228.681338 66.5"></polygon>
                    <polygon id="Fill-35" fill="#FFFFFF" points="254.5 51.7397174 252.450128 51.5 249.5 66.2602826 251.550854 66.5"></polygon>
                    <polygon id="Fill-36" fill="#FFFFFF" points="277 66.7603808 278.927459 67 282 53.2389103 280.072541 53"></polygon>
                    <polygon id="Fill-37" fill="#FFFFFF" points="4.5 76.59794 3.7609132 76.5 3.5 91.4027497 4.2390868 91.5"></polygon>
                    <polygon id="Fill-38" fill="#FFFFFF" points="30.5 76.6307936 29.8261944 76.5 29.5 91.3699058 30.1738056 91.5"></polygon>
                    <polygon id="Fill-39" fill="#FFFFFF" points="56.5 78.6631746 53.4215426 78.5 51.5 93.3368254 54.5795656 93.5"></polygon>
                    <polygon id="Fill-40" fill="#FFFFFF" points="79.5 78.6957867 76.6789231 78.5 74.5 93.3034934 77.3210769 93.5"></polygon>
                    <polygon id="Fill-41" fill="#FFFFFF" points="109.5 78.7286563 106.910608 78.5 104.5 93.2713437 107.090385 93.5"></polygon>
                    <polygon id="Fill-42" fill="#FFFFFF" points="132.5 78.761063 130.119497 78.5 127.5 93.238937 129.881447 93.5"></polygon>
                    <polygon id="Fill-43" fill="#FFFFFF" points="157.5 78.7929952 155.308898 78.5 152.5 93.207758 154.691102 93.5"></polygon>
                    <polygon id="Fill-44" fill="#FFFFFF" points="182 79.3027953 179.982275 79 177 92.6972047 179.017725 93"></polygon>
                    <polygon id="Fill-45" fill="#FFFFFF" points="207 79.3316744 205.141374 79 202 92.6683256 203.858626 93"></polygon>
                    <polygon id="Fill-46" fill="#FFFFFF" points="230 79.3593338 228.287227 79 225 92.6406662 226.712773 93"></polygon>
                    <polygon id="Fill-47" fill="#FFFFFF" points="256 79.3872213 254.422452 79 251 92.6135292 252.577548 93"></polygon>
                    <polygon id="Fill-48" fill="#FFFFFF" points="274.5 93.0869103 276.242105 93.5 280.5 79.9138533 278.757895 79.5"></polygon>
                    <polygon id="Fill-49" fill="#FFFFFF" points="7.5 102.647408 3.99848747 102.5 2.5 117.351893 6.00151253 117.5"></polygon>
                    <polygon id="Fill-50" fill="#FFFFFF" points="32.5 102.697865 29.357918 102.5 27.5 117.302847 30.642082 117.5"></polygon>
                    <polygon id="Fill-51" fill="#FFFFFF" points="56.5 102.748102 53.6707684 102.5 51.5 117.251898 54.3292316 117.5"></polygon>
                    <polygon id="Fill-52" fill="#FFFFFF" points="79.5 102.798136 76.9457385 102.5 74.5 117.201124 77.0542615 117.5"></polygon>
                    <polygon id="Fill-53" fill="#FFFFFF" points="106.5 102.849452 104.190068 102.5 101.5 117.150548 103.8091 117.5"></polygon>
                    <polygon id="Fill-54" fill="#FFFFFF" points="130 103.373247 127.90952 103 125 116.627472 127.09048 117"></polygon>
                    <polygon id="Fill-55" fill="#FFFFFF" points="155 103.418744 153.106796 103 150 116.581256 151.893204 117"></polygon>
                    <polygon id="Fill-56" fill="#FFFFFF" points="179.5 102.964839 177.442004 102.5 173.5 116.035161 175.557996 116.5"></polygon>
                    <polygon id="Fill-57" fill="#FFFFFF" points="207.5 103.0093 205.637005 102.5 201.5 115.991468 203.362995 116.5"></polygon>
                    <polygon id="Fill-58" fill="#FFFFFF" points="233.5 103.052073 231.815735 102.5 227.5 115.947927 229.184265 116.5"></polygon>
                    <polygon id="Fill-59" fill="#FFFFFF" points="257.5 105.008346 255.980239 104.5 251.5 115.990964 253.019761 116.5"></polygon>
                    <polygon id="Fill-60" fill="#FFFFFF" points="274.5 115.958796 275.868647 116.5 280.5 105.041204 279.131353 104.5"></polygon>
                    <polygon id="Fill-61" fill="#FFFFFF" points="7.5 125.707253 4.14641094 125.5 2.5 140.292747 5.85453855 140.5"></polygon>
                    <polygon id="Fill-62" fill="#FFFFFF" points="32.5 125.778716 29.5279045 125.5 27.5 140.222008 30.4720955 140.5"></polygon>
                    <polygon id="Fill-63" fill="#FFFFFF" points="56.5 125.851441 53.8563969 125.5 51.5 140.149301 54.1427872 140.5"></polygon>
                    <polygon id="Fill-64" fill="#FFFFFF" points="80 126.395785 77.6437834 126 75 139.604215 77.3562166 140"></polygon>
                    <polygon id="Fill-65" fill="#FFFFFF" points="106.5 127.964241 103.975856 127.5 100.5 141.035759 103.023284 141.5"></polygon>
                    <polygon id="Fill-66" fill="#FFFFFF" points="132.5 128.032743 130.246757 127.5 126.5 140.968004 128.752432 141.5"></polygon>
                    <polygon id="Fill-67" fill="#FFFFFF" points="155.5 128.099846 153.489513 127.5 149.5 140.900154 151.510487 141.5"></polygon>
                    <polygon id="Fill-68" fill="#FFFFFF" points="179.5 128.166328 177.709325 127.5 173.5 140.833672 175.291404 141.5"></polygon>
                    <polygon id="Fill-69" fill="#FFFFFF" points="206 129.625589 204.142775 129 199 140.375109 200.857225 141"></polygon>
                    <polygon id="Fill-70" fill="#FFFFFF" points="232 129.677315 230.354077 129 225 140.322685 226.645151 141"></polygon>
                    <polygon id="Fill-71" fill="#FFFFFF" points="256 129.726212 254.548285 129 249 140.273788 250.451715 141"></polygon>
                    <polygon id="Fill-72" fill="#FFFFFF" points="274 140.228643 275.273693 141 281 129.769814 279.726307 129"></polygon>
                    <polygon id="Fill-73" fill="#FFFFFF" points="6.5 149.777049 3.26296171 149.5 1.5 164.222951 4.73788546 164.5"></polygon>
                    <polygon id="Fill-74" fill="#FFFFFF" points="32.5 149.874595 29.6603303 149.5 27.5 164.125405 30.3396697 164.5"></polygon>
                    <polygon id="Fill-75" fill="#FFFFFF" points="56.5 152.941808 53.5030316 152.5 50.5 166.058192 53.4978346 166.5"></polygon>
                    <polygon id="Fill-76" fill="#FFFFFF" points="79.5 153.036052 76.8579981 152.5 73.5 165.963948 76.1428091 166.5"></polygon>
                    <polygon id="Fill-77" fill="#FFFFFF" points="104.5 153.131138 102.169734 152.5 98.5 165.868862 100.82951 166.5"></polygon>
                    <polygon id="Fill-78" fill="#FFFFFF" points="132.5 153.225811 130.447799 152.5 126.5 165.774189 128.552201 166.5"></polygon>
                    <polygon id="Fill-79" fill="#FFFFFF" points="156 156.702358 153.895527 156 149 167.297642 151.104473 168"></polygon>
                    <polygon id="Fill-80" fill="#FFFFFF" points="179 156.780436 177.15719 156 172 167.220278 173.842066 168"></polygon>
                    <polygon id="Fill-81" fill="#FFFFFF" points="206 156.854811 204.394301 156 199 167.145189 200.605699 168"></polygon>
                    <polygon id="Fill-82" fill="#FFFFFF" points="232 156.924564 230.610116 156 225 167.074663 226.389884 168"></polygon>
                    <polygon id="Fill-83" fill="#FFFFFF" points="256 156.989299 254.806167 156 249 167.010701 250.193833 168"></polygon>
                    <polygon id="Fill-84" fill="#FFFFFF" points="273 165.302483 274.015503 166 280 158.696953 278.984497 158"></polygon>
                    <polygon id="Fill-85" fill="#FFFFFF" points="7.5 175.857022 4.35615914 175.5 2.5 190.142978 5.64384086 190.5"></polygon>
                    <polygon id="Fill-86" fill="#FFFFFF" points="32 174.485294 28.7219184 174 26 188.514706 29.2780816 189"></polygon>
                    <polygon id="Fill-87" fill="#FFFFFF" points="56.5 178.075847 53.6434124 177.5 50.5 190.923432 53.3565876 191.5"></polygon>
                    <polygon id="Fill-88" fill="#FFFFFF" points="79.5 178.201756 77.0086155 177.5 73.5 190.797496 75.9913845 191.5"></polygon>
                    <polygon id="Fill-89" fill="#FFFFFF" points="107 177.829733 104.467531 177 100 190.171042 102.53168 191"></polygon>
                    <polygon id="Fill-90" fill="#FFFFFF" points="133 178.819721 130.800954 178 126 189.180279 128.199788 190"></polygon>
                    <polygon id="Fill-91" fill="#FFFFFF" points="156 178.92668 154.098359 178 149 189.07332 150.900941 190"></polygon>
                    <polygon id="Fill-92" fill="#FFFFFF" points="179 179.030078 177.366954 178 172 188.969922 173.633046 190"></polygon>
                    <polygon id="Fill-93" fill="#FFFFFF" points="206 179.127644 204.61034 178 199 188.872356 200.39029 190"></polygon>
                    <polygon id="Fill-94" fill="#FFFFFF" points="229 181.812109 227.828929 181 222 188.188446 223.171071 189"></polygon>
                    <polygon id="Fill-95" fill="#FFFFFF" points="254.5 184.365628 253.386996 183.5 246.5 190.634372 247.612349 191.5"></polygon>
                    <polygon id="Fill-96" fill="#FFFFFF" points="272.5 190.588433 273.410941 191.5 280.5 184.410941 279.589059 183.5"></polygon>
                    <polygon id="Fill-97" fill="#FFFFFF" points="7 201.448843 3.32179738 201 1 215.551157 4.67903991 216"></polygon>
                    <polygon id="Fill-98" fill="#FFFFFF" points="32.5 202.072557 29.3300587 201.5 26.5 214.927443 29.6699413 215.5"></polygon>
                    <polygon id="Fill-99" fill="#FFFFFF" points="56.5 202.232425 53.7625882 201.5 50.5 214.767575 53.2374118 215.5"></polygon>
                    <polygon id="Fill-100" fill="#FFFFFF" points="81 200.895117 78.2437691 200 74 213.104883 76.7569961 214"></polygon>
                    <polygon id="Fill-101" fill="#FFFFFF" points="107 204.060679 104.62804 203 100 215.939321 102.37196 217"></polygon>
                    <polygon id="Fill-102" fill="#FFFFFF" points="133 205.050377 130.970518 204 126 214.949623 128.029482 216"></polygon>
                    <polygon id="Fill-103" fill="#FFFFFF" points="156 205.18921 154.277597 204 149 214.81079 150.722403 216"></polygon>
                    <polygon id="Fill-104" fill="#FFFFFF" points="179 205.322534 177.554211 204 172 214.678263 173.445188 216"></polygon>
                    <polygon id="Fill-105" fill="#FFFFFF" points="202.5 207.463699 201.131665 206.5 194.5 213.536301 195.868335 214.5"></polygon>
                    <polygon id="Fill-106" fill="#FFFFFF" points="229.5 207.539235 228.38463 206.5 221.5 213.460765 222.61537 214.5"></polygon>
                    <polygon id="Fill-107" fill="#FFFFFF" points="253.5 207.605238 252.608482 206.5 245.5 213.395411 246.391518 214.5"></polygon>
                    <polygon id="Fill-108" fill="#FFFFFF" points="273 212.985025 273.697517 214 281 208.015592 280.303047 207"></polygon>
                    <polygon id="Fill-109" fill="#FFFFFF" points="7 224.552678 3.40215578 224 1 238.447322 4.59784422 239"></polygon>
                    <polygon id="Fill-110" fill="#FFFFFF" points="32.5 225.208196 29.4223562 224.5 26.5 237.791085 29.5776438 238.5"></polygon>
                    <polygon id="Fill-111" fill="#FFFFFF" points="57 227.910075 53.9263135 227 50 240.089925 53.0736865 241"></polygon>
                    <polygon id="Fill-112" fill="#FFFFFF" points="81 228.116608 78.3756137 227 74 239.882607 76.6243863 241"></polygon>
                    <polygon id="Fill-113" fill="#FFFFFF" points="106 229.13737 103.772429 228 99 238.861923 101.228226 240"></polygon>
                    <polygon id="Fill-114" fill="#FFFFFF" points="133 229.316846 131.125693 228 126 238.683154 127.874307 240"></polygon>
                    <polygon id="Fill-115" fill="#FFFFFF" points="156 229.491499 154.443087 228 149 238.508501 150.556913 240"></polygon>
                    <polygon id="Fill-116" fill="#FFFFFF" points="180.5 231.604089 179.045283 230.5 172.5 237.395348 173.954088 238.5"></polygon>
                    <polygon id="Fill-117" fill="#FFFFFF" points="202.5 231.707364 201.334267 230.5 194.5 237.293242 195.665733 238.5"></polygon>
                    <polygon id="Fill-118" fill="#FFFFFF" points="229 234.13755 228.087321 233 221 238.86245 221.912679 240"></polygon>
                    <polygon id="Fill-119" fill="#FFFFFF" points="255.5 231.710331 254.543091 230.5 244.5 236.289669 245.456166 237.5"></polygon>
                    <polygon id="Fill-120" fill="#FFFFFF" points="270.5 236.225728 271.207077 237.5 281.5 231.774272 280.79363 230.5"></polygon>
                    <polygon id="Fill-121" fill="#FFFFFF" points="7 253.668742 3.4710076 253 1 267.332005 4.5289924 268"></polygon>
                    <polygon id="Fill-122" fill="#FFFFFF" points="31 250.862245 27.5037912 250 24 263.137755 27.4946924 264"></polygon>
                    <polygon id="Fill-123" fill="#FFFFFF" points="57 251.110893 54.0342179 250 50 262.888343 52.9657821 264"></polygon>
                    <polygon id="Fill-124" fill="#FFFFFF" points="81 252.173336 78.4965255 251 74 261.826664 76.504123 263"></polygon>
                    <polygon id="Fill-125" fill="#FFFFFF" points="106 252.396213 103.906066 251 99 261.603059 101.093934 263"></polygon>
                    <polygon id="Fill-126" fill="#FFFFFF" points="130.5 253.11823 128.525424 251.5 122.5 261.88177 124.473924 263.5"></polygon>
                    <polygon id="Fill-127" fill="#FFFFFF" points="154.5 257.721446 152.900123 256.5 146.5 263.278554 148.099261 264.5"></polygon>
                    <polygon id="Fill-128" fill="#FFFFFF" points="180.5 258.856095 179.2331 257.5 172.5 264.143905 173.7669 265.5"></polygon>
                    <polygon id="Fill-129" fill="#FFFFFF" points="202.5 258.982332 201.523555 257.5 194.5 264.017012 195.476998 265.5"></polygon>
                    <polygon id="Fill-130" fill="#FFFFFF" points="232.5 257.899872 231.496985 256.5 221.5 262.09949 222.502294 263.5"></polygon>
                    <polygon id="Fill-131" fill="#FFFFFF" points="255.5 259.998403 254.778756 258.5 244.5 264.001597 245.221928 265.5"></polygon>
                    <polygon id="Fill-132" fill="#FFFFFF" points="269 263.631353 269.496045 265 280 260.367931 279.503305 259"></polygon>
                    <polygon id="Fill-133" fill="#FFFFFF" points="7.5 273.297134 3.4545052 272.5 0.5 286.70362 4.5454948 287.5"></polygon>
                    <polygon id="Fill-134" fill="#FFFFFF" points="31 276.032962 27.5886031 275 24 287.967038 27.4106909 289"></polygon>
                    <polygon id="Fill-135" fill="#FFFFFF" points="57 279.336961 54.132107 278 50 290.663039 52.8672427 292"></polygon>
                    <polygon id="Fill-136" fill="#FFFFFF" points="81 280.414998 78.6094465 279 74 289.585002 76.3905535 291"></polygon>
                    <polygon id="Fill-137" fill="#FFFFFF" points="106.5 278.186316 104.252809 276.5 98.5 286.813684 100.747191 288.5"></polygon>
                    <polygon id="Fill-138" fill="#FFFFFF" points="130.5 281.45317 128.6876 279.5 122.5 289.546025 124.3124 291.5"></polygon>
                    <polygon id="Fill-139" fill="#FFFFFF" points="154.5 279.974343 153.07461 278.5 146.5 285.026239 147.925965 286.5"></polygon>
                    <polygon id="Fill-140" fill="#FFFFFF" points="180 281.637775 178.504317 280 169 286.362225 170.495683 288"></polygon>
                    <polygon id="Fill-141" fill="#FFFFFF" points="207.5 284.070661 206.399646 282.5 196.5 287.929339 197.601062 289.5"></polygon>
                    <polygon id="Fill-142" fill="#FFFFFF" points="229.5 285.208137 228.723766 283.5 218.5 288.791863 219.276234 290.5"></polygon>
                    <polygon id="Fill-143" fill="#FFFFFF" points="256 284.590544 255.48048 283 245 287.409456 245.51952 289"></polygon>
                    <polygon id="Fill-144" fill="#FFFFFF" points="267.5 287.756763 267.913831 289.5 281.5 285.241483 281.086169 283.5"></polygon>
                    <polygon id="Fill-145" fill="#FFFFFF" points="1 314.123314 4.98071939 315 8 301.876686 4.01855499 301"></polygon>
                    <polygon id="Fill-146" fill="#FFFFFF" points="31 302.221777 27.66695 301 24 313.778223 27.3337112 315"></polygon>
                    <polygon id="Fill-147" fill="#FFFFFF" points="57 302.586277 54.2255986 301 50 313.413723 52.7750109 315"></polygon>
                    <polygon id="Fill-148" fill="#FFFFFF" points="81.5 303.18229 78.8921076 301.5 73.5 311.81843 76.1072441 313.5"></polygon>
                    <polygon id="Fill-149" fill="#FFFFFF" points="106.5 304.50502 104.396719 302.5 98.5 312.49498 100.603281 314.5"></polygon>
                    <polygon id="Fill-150" fill="#FFFFFF" points="130.5 306.048513 128.846781 304.5 122.5 310.952045 124.152647 312.5"></polygon>
                    <polygon id="Fill-151" fill="#FFFFFF" points="156 308.752995 154.272936 307 145 313.247619 146.726321 315"></polygon>
                    <polygon id="Fill-152" fill="#FFFFFF" points="180.5 308.207964 179.239225 306.5 169.5 311.791433 170.760775 313.5"></polygon>
                    <polygon id="Fill-153" fill="#FFFFFF" points="207.5 310.385706 206.621938 308.5 196.5 313.613603 197.378062 315.5"></polygon>
                    <polygon id="Fill-154" fill="#FFFFFF" points="232.5 309.285831 231.767229 307.5 218.5 311.714169 219.233569 313.5"></polygon>
                    <polygon id="Fill-155" fill="#FFFFFF" points="254.5 311.498268 254.054792 309.5 240.5 313.500866 240.945208 315.5"></polygon>
                    <polygon id="Fill-156" fill="#FFFFFF" points="267 313.072541 267.239607 315 281 311.929358 280.759684 310"></polygon>
                    <polygon id="Fill-157" fill="#FFFFFF" points="1 337.978995 4.92363211 339 8 326.021005 4.07636789 325"></polygon>
                    <polygon id="Fill-158" fill="#FFFFFF" points="31 328.429466 27.7395982 327 24 339.570534 27.2604018 341"></polygon>
                    <polygon id="Fill-159" fill="#FFFFFF" points="58.5 328.094867 55.4309043 326.5 50.5 336.905133 53.5690957 338.5"></polygon>
                    <polygon id="Fill-160" fill="#FFFFFF" points="78.5 328.473892 76.014878 326.5 70.5 336.526108 72.985122 338.5"></polygon>
                    <polygon id="Fill-161" fill="#FFFFFF" points="104.5 328.852442 102.539492 326.5 96.5 336.147558 98.4605084 338.5"></polygon>
                    <polygon id="Fill-162" fill="#FFFFFF" points="132 329.815273 129.945317 328 121 334.184727 123.053939 336"></polygon>
                    <polygon id="Fill-163" fill="#FFFFFF" points="156 334.057943 154.499649 332 145 337.942708 146.499649 340"></polygon>
                    <polygon id="Fill-164" fill="#FFFFFF" points="180.5 334.517082 179.460212 332.5 169.5 337.482265 170.539125 339.5"></polygon>
                    <polygon id="Fill-165" fill="#FFFFFF" points="205 335.259263 204.139514 333 191 337.740737 191.860486 340"></polygon>
                    <polygon id="Fill-166" fill="#FFFFFF" points="230.5 335.699836 229.986692 333.5 216.5 337.300164 217.01256 339.5"></polygon>
                    <polygon id="Fill-167" fill="#FFFFFF" points="256.5 336.663636 256.213669 334.5 241.5 337.336364 241.786331 339.5"></polygon>
                    <polygon id="Fill-168" fill="#FFFFFF" points="265.5 336.940752 265.611866 337.5 280.5 337.059248 280.388842 336.5"></polygon>
                    <polygon id="Fill-169" fill="#FFFFFF" points="1 363.821204 4.8699659 365 8 352.178796 4.1300341 351"></polygon>
                    <polygon id="Fill-170" fill="#FFFFFF" points="24 363.344816 27.191289 365 31 352.655184 27.8075338 351"></polygon>
                    <polygon id="Fill-171" fill="#FFFFFF" points="50.5 362.650253 53.469598 364.5 58.5 354.349747 55.530402 352.5"></polygon>
                    <polygon id="Fill-172" fill="#FFFFFF" points="70.5 363.211213 72.8617222 365.5 78.5 355.788787 76.1376969 353.5"></polygon>
                    <polygon id="Fill-173" fill="#FFFFFF" points="97 363.274998 99.4980887 366 108 356.725821 105.501911 354"></polygon>
                    <polygon id="Fill-174" fill="#FFFFFF" points="121 361.897167 122.838643 364 132 358.104048 130.162065 356"></polygon>
                    <polygon id="Fill-175" fill="#FFFFFF" points="144.5 362.405884 145.780529 364.5 155.5 359.593509 154.219471 357.5"></polygon>
                    <polygon id="Fill-176" fill="#FFFFFF" points="169.5 362.12804 170.33339 364.5 180.5 359.87196 179.66661 357.5"></polygon>
                    <polygon id="Fill-177" fill="#FFFFFF" points="192.5 363.169271 193.131104 365.5 206.5 361.829972 205.868896 359.5"></polygon>
                    <polygon id="Fill-178" fill="#FFFFFF" points="217 361.690452 217.326171 364 231 361.309548 230.673829 359"></polygon>
                    <polygon id="Fill-179" fill="#FFFFFF" points="240.5 362.899407 240.632205 363.5 255.5 363.100346 255.367088 362.5"></polygon>
                    <polygon id="Fill-180" fill="#FFFFFF" points="264 362 282 362 282 361 264 361"></polygon>
                </g>
            </g>
        </g>
    </g>
</svg>