<svg id="a" xmlns="http://www.w3.org/2000/svg" xmlns:xlink="http://www.w3.org/1999/xlink" viewBox="0 0 243 307.39">
                            <defs>
                                <style>.s{fill:none;}.t{fill:#005dba;}.u{fill:#fff;}.v{fill:#99bee3;}.w{clip-path:url(#d);}</style>
                                <clipPath id="d"><rect class="s" width="243" height="307.39"></rect></clipPath>
                            </defs>
                            <rect id="b" class="u" x="95.14" y="120.01" width="48.12" height="63.43"></rect>
                                <g id="c">
                                    <g class="w">
                                        <g id="e">
                                            <path id="f" class="t" d="M217.07,290.07H5.76c-3.18,0-5.76-2.58-5.76-5.76V5.76C0,2.58,2.58,0,5.76,0H217.07c3.18,0,5.76,2.58,5.76,5.76h0V284.3c0,3.18-2.58,5.76-5.76,5.76m-205.54-11.52H211.33V11.53H11.53V278.54Z"></path>
                                            <path id="g" class="v" d="M217.07,40.78H5.76c-2.12,0-3.84-1.72-3.84-3.84s1.72-3.84,3.84-3.84H217.07c2.12,0,3.84,1.72,3.84,3.84s-1.72,3.84-3.84,3.84"></path>
                                            <path id="h" class="t" d="M162.59,131.5H91.36c-3.18,0-5.76-2.58-5.76-5.76s2.58-5.76,5.76-5.76h71.22c3.18,0,5.76,2.58,5.76,5.76s-2.58,5.76-5.76,5.76"></path>
                                            <path id="i" class="t" d="M170.68,176.17H91.36c-3.18,0-5.76-2.58-5.76-5.76s2.58-5.76,5.76-5.76h79.32c3.18,0,5.76,2.58,5.76,5.76s-2.58,5.76-5.76,5.76"></path>
                                            <path id="j" class="t" d="M185.86,93.14H36.99c-3.18,0-5.77-2.57-5.77-5.76h0v-24.02c0-3.18,2.58-5.76,5.76-5.76H185.84c3.18,0,5.76,2.58,5.76,5.76v24.01c0,3.18-2.58,5.76-5.76,5.76m-143.1-11.52H180.08v-12.47H42.74v12.47Z"></path>
                                            <path id="k" class="v" d="M46.96,140.67l-9.5-9.49c-1.54-1.46-1.6-3.89-.14-5.43,1.46-1.54,3.89-1.6,5.43-.14,.05,.05,.1,.1,.14,.14l4.07,4.07,16.28-16.28c1.46-1.54,3.89-1.6,5.43-.14s1.6,3.89,.14,5.43c-.05,.05-.1,.1-.14,.14l-21.71,21.7Z"></path>
                                            <path id="l" class="t" d="M217.07,290.07H5.76c-3.18,0-5.76-2.58-5.76-5.76V5.76C0,2.58,2.58,0,5.76,0H217.07c3.18,0,5.76,2.58,5.76,5.76h0V284.3c0,3.18-2.58,5.76-5.76,5.76m-205.54-11.52H211.33V11.53H11.53V278.54Z"></path>
                                            <path id="m" class="v" d="M46.96,185.34l-9.5-9.52c-1.54-1.46-1.6-3.89-.14-5.43,1.46-1.54,3.89-1.6,5.43-.14,.05,.05,.1,.1,.14,.14l4.07,4.07,16.28-16.28c1.5-1.5,3.93-1.5,5.43,0,1.5,1.5,1.5,3.93,0,5.43h0l-21.71,21.72Z"></path>
                                            <path id="n" class="v" d="M46.96,230.01l-9.5-9.5c-1.54-1.46-1.6-3.89-.14-5.43s3.89-1.6,5.43-.14c.05,.05,.1,.1,.14,.14l4.07,4.07,16.28-16.28c1.5-1.5,3.93-1.5,5.43,0,1.5,1.5,1.5,3.93,0,5.43l-21.71,21.71Z"></path>
                                            <path id="o" class="u" d="M237.23,250.25c0,28.38-23,51.38-51.38,51.38s-51.38-23-51.38-51.38,23-51.38,51.38-51.38h0c28.38,0,51.38,23,51.38,51.38"></path>
                                            <path id="p" class="t" d="M185.86,307.39c-31.56,0-57.14-25.58-57.14-57.14s25.58-57.14,57.14-57.14,57.14,25.58,57.14,57.14c-.04,31.54-25.6,57.11-57.14,57.14m0-102.76c-25.19,0-45.62,20.42-45.62,45.62s20.42,45.62,45.62,45.62,45.62-20.42,45.62-45.62c-.03-25.18-20.44-45.59-45.62-45.62"></path>
                                            <path id="q" class="v" d="M198.17,278.5l-12.11-10.77-6.92,7.78-11.69-24.87-9.55-23.45,50.39,15.57-7.77,8.73,12.11,10.77-14.45,16.24Zm-12.73-21.62l12.11,10.77,4.24-4.76-12.11-10.77,4.94-5.55-23.47-7.25,3.39,8.34,6.61,14.05,4.29-4.83Z"></path>
                                            <path id="r" class="t" d="M144.73,222.76h-53.36c-3.18,0-5.76-2.58-5.76-5.76s2.58-5.76,5.76-5.76h53.36c3.18,0,5.76,2.58,5.76,5.76s-2.58,5.76-5.76,5.76"></path>
                                        </g>
                                    </g>
                                </g>
                        </svg>