<?xml version="1.0" encoding="UTF-8"?>
<svg width="403px" height="311px" viewBox="0 0 403 311" version="1.1" xmlns="http://www.w3.org/2000/svg" xmlns:xlink="http://www.w3.org/1999/xlink">
    <title>dashes blue</title>
    <g id="Symbols" stroke="none" stroke-width="1" fill="none" fill-rule="evenodd">
        <g id="Quote/Dark" transform="translate(-680.000000, -140.000000)" fill="#073876">
            <g id="dashes-blue" transform="translate(881.500000, 295.500000) rotate(90.000000) translate(-881.500000, -295.500000) translate(726.000000, 94.000000)">
                <polygon id="Fill-1" points="5 19 6 19 6 0 5 0"></polygon>
                <polygon id="Fill-2" points="33 19 34 19 34 0 33 0"></polygon>
                <polygon id="Fill-3" points="59 19 60 19 60 0 59 0"></polygon>
                <polygon id="Fill-4" points="88 19 89 19 89 0 88 0"></polygon>
                <polygon id="Fill-5" points="116 19 117 19 117 0 116 0"></polygon>
                <polygon id="Fill-6" points="144 19 145 19 145 0 144 0"></polygon>
                <polygon id="Fill-7" points="169 19 170 19 170 0 169 0"></polygon>
                <polygon id="Fill-8" points="197 19 198 19 198 0 197 0"></polygon>
                <polygon id="Fill-9" points="227 19 228 19 228 0 227 0"></polygon>
                <polygon id="Fill-10" points="251 19 252 19 252 0 251 0"></polygon>
                <polygon id="Fill-11" points="279 19 280 19 280 0 279 0"></polygon>
                <polygon id="Fill-12" points="308 19 309 19 309 0 308 0"></polygon>
                <polygon id="Fill-13" points="6 28.0306232 5.12837588 28 5 46.9685261 5.87162412 47"></polygon>
                <polygon id="Fill-14" points="34 29.0367039 33.1658904 29 33 45.9625315 33.8344679 46"></polygon>
                <polygon id="Fill-15" points="60 29.0460954 59.2004864 29 59 45.9539046 59.7991661 46"></polygon>
                <polygon id="Fill-16" points="89 29.0555732 88.2335693 29 88 45.9444268 88.7664307 46"></polygon>
                <polygon id="Fill-17" points="116 29.0643704 115.264812 29 115 45.9356296 115.735188 46"></polygon>
                <polygon id="Fill-18" points="142 29.073249 141.29408 29 141 45.926751 141.706238 46"></polygon>
                <polygon id="Fill-19" points="168 29.0822164 167.321882 29 167 45.9170006 167.678118 46"></polygon>
                <polygon id="Fill-20" points="198 29.0912709 197.347996 29 197 45.9087291 197.652004 46"></polygon>
                <polygon id="Fill-21" points="227 29.1004093 226.373055 29 226 45.9003814 226.626945 46"></polygon>
                <polygon id="Fill-22" points="253 29.108847 252.396853 29 252 45.891153 252.603433 46"></polygon>
                <polygon id="Fill-23" points="283 29.1181664 282.41904 29 282 45.8818336 282.58096 46"></polygon>
                <polygon id="Fill-24" points="305 45.8732182 305.559401 46 306 29.1267818 305.440599 29"></polygon>
                <polygon id="Fill-25" points="5 58.0640316 4.20717489 58 4 74.935197 4.79282511 75"></polygon>
                <polygon id="Fill-26" points="34 58.0856541 33.2627095 58 33 74.9143459 33.7375746 75"></polygon>
                <polygon id="Fill-27" points="60 58.1076845 59.3124155 58 59 74.8923155 59.687314 75"></polygon>
                <polygon id="Fill-28" points="89 58.1285594 88.3582128 58 88 74.8714406 88.6417872 75"></polygon>
                <polygon id="Fill-29" points="116 58.1498468 115.399802 58 115 74.8509545 115.600198 75"></polygon>
                <polygon id="Fill-30" points="142 58.1707364 141.437707 58 141 74.8292636 141.562056 75"></polygon>
                <polygon id="Fill-31" points="168 58.19125 167.47305 58 167 74.80875 167.52695 75"></polygon>
                <polygon id="Fill-32" points="200 57.2121698 197.527893 57 195 73.7878302 197.472107 74"></polygon>
                <polygon id="Fill-33" points="226 57.2326939 223.678609 57 221 73.7681401 223.321391 74"></polygon>
                <polygon id="Fill-34" points="255 57.2519705 252.818662 57 250 73.7471868 252.181338 74"></polygon>
                <polygon id="Fill-35" points="280 57.2716798 277.950128 57 275 73.7283202 277.050854 74"></polygon>
                <polygon id="Fill-36" points="306 73.7432651 307.927459 74 311 59.2559753 309.072541 59"></polygon>
                <polygon id="Fill-37" points="5 85.1109987 4.2609132 85 4 101.889783 4.7390868 102"></polygon>
                <polygon id="Fill-38" points="34 85.1482328 33.3261944 85 33 101.85256 33.6738056 102"></polygon>
                <polygon id="Fill-39" points="62 86.1849312 58.9215426 86 57 102.815069 60.0795656 103"></polygon>
                <polygon id="Fill-40" points="88 86.2218916 85.1789231 86 83 102.777293 85.8210769 103"></polygon>
                <polygon id="Fill-41" points="120 86.2591438 117.410608 86 115 102.740856 117.590385 103"></polygon>
                <polygon id="Fill-42" points="146 86.2958714 143.619497 86 141 102.704129 143.381447 103"></polygon>
                <polygon id="Fill-43" points="173 86.3320613 170.808898 86 168 102.668792 170.191102 103"></polygon>
                <polygon id="Fill-44" points="200 87.3244236 197.982275 87 195 101.675576 197.017725 102"></polygon>
                <polygon id="Fill-45" points="228 87.3553655 226.141374 87 223 101.644635 224.858626 102"></polygon>
                <polygon id="Fill-46" points="253 87.3850005 251.287227 87 248 101.614999 249.712773 102"></polygon>
                <polygon id="Fill-47" points="282 87.4148799 280.422452 87 277 101.585924 278.577548 102"></polygon>
                <polygon id="Fill-48" points="302.5 102.057404 304.242105 102.5 308.5 87.9434142 306.757895 87.5"></polygon>
                <polygon id="Fill-49" points="9 112.167063 5.49848747 112 4 128.832146 7.50151253 129"></polygon>
                <polygon id="Fill-50" points="36 112.224247 32.857918 112 31 128.77656 34.142082 129"></polygon>
                <polygon id="Fill-51" points="62 112.281182 59.1707684 112 57 128.718818 59.8292316 129"></polygon>
                <polygon id="Fill-52" points="88 112.337887 85.4457385 112 83 128.661274 85.5542615 129"></polygon>
                <polygon id="Fill-53" points="118 112.396045 115.690068 112 113 128.603955 115.3091 129"></polygon>
                <polygon id="Fill-54" points="143 113.399908 140.90952 113 138 127.600863 140.09048 128"></polygon>
                <polygon id="Fill-55" points="171 113.448654 169.106796 113 166 127.551346 167.893204 128"></polygon>
                <polygon id="Fill-56" points="198.5 112.998042 196.442004 112.5 192.5 127.001958 194.557996 127.5"></polygon>
                <polygon id="Fill-57" points="228.5 113.045679 226.637005 112.5 222.5 126.955144 224.362995 127.5"></polygon>
                <polygon id="Fill-58" points="256.5 113.091507 254.815735 112.5 250.5 126.908493 252.184265 127.5"></polygon>
                <polygon id="Fill-59" points="284.5 116.050708 282.980239 115.5 278.5 127.948544 280.019761 128.5"></polygon>
                <polygon id="Fill-60" points="302.5 127.913695 303.868647 128.5 308.5 116.086305 307.131353 115.5"></polygon>
                <polygon id="Fill-61" points="9 139.234886 5.64641094 139 4 155.765114 7.35453855 156"></polygon>
                <polygon id="Fill-62" points="36 139.315878 33.0279045 139 31 155.684942 33.9720955 156"></polygon>
                <polygon id="Fill-63" points="62 139.3983 59.3563969 139 57 155.602541 59.6427872 156"></polygon>
                <polygon id="Fill-64" points="89 140.424055 86.6437834 140 84 154.575945 86.3562166 155"></polygon>
                <polygon id="Fill-65" points="117.5 140.997401 114.975856 140.5 111.5 155.002599 114.023284 155.5"></polygon>
                <polygon id="Fill-66" points="146.5 141.070796 144.246757 140.5 140.5 154.930005 142.752432 155.5"></polygon>
                <polygon id="Fill-67" points="171.5 141.142693 169.489513 140.5 165.5 154.857307 167.510487 155.5"></polygon>
                <polygon id="Fill-68" points="198.5 141.213923 196.709325 140.5 192.5 154.786077 194.291404 155.5"></polygon>
                <polygon id="Fill-69" points="227.5 142.177722 225.377457 141.5 219.5 153.823035 221.622543 154.5"></polygon>
                <polygon id="Fill-70" points="256.5 142.233758 254.618945 141.5 248.5 153.766242 250.380172 154.5"></polygon>
                <polygon id="Fill-71" points="282.5 142.28673 280.840897 141.5 274.5 153.71327 276.159103 154.5"></polygon>
                <polygon id="Fill-72" points="301.5 153.664363 302.955649 154.5 309.5 142.333965 308.044351 141.5"></polygon>
                <polygon id="Fill-73" points="7 165.313988 3.76296171 165 2 181.686012 5.23788546 182"></polygon>
                <polygon id="Fill-74" points="36 165.424541 33.1603303 165 31 181.575459 33.8396697 182"></polygon>
                <polygon id="Fill-75" points="61.5 168.973365 58.5030316 168.5 55.5 183.026635 58.4978346 183.5"></polygon>
                <polygon id="Fill-76" points="87.5 169.074342 84.8579981 168.5 81.5 182.925658 84.1428091 183.5"></polygon>
                <polygon id="Fill-77" points="114.5 169.17622 112.169734 168.5 108.5 182.82378 110.82951 183.5"></polygon>
                <polygon id="Fill-78" points="146.5 169.277655 144.447799 168.5 140.5 182.722345 142.552201 183.5"></polygon>
                <polygon id="Fill-79" points="171.5 172.260888 169.094888 171.5 163.5 183.739112 165.905112 184.5"></polygon>
                <polygon id="Fill-80" points="198.5 172.345472 196.393931 171.5 190.5 183.655302 192.605218 184.5"></polygon>
                <polygon id="Fill-81" points="227.5 172.426045 225.664915 171.5 219.5 183.573955 221.335085 184.5"></polygon>
                <polygon id="Fill-82" points="256.5 172.501611 254.911561 171.5 248.5 183.497552 250.088439 184.5"></polygon>
                <polygon id="Fill-83" points="282.5 172.571741 281.135619 171.5 274.5 183.428259 275.864381 184.5"></polygon>
                <polygon id="Fill-84" points="301.5 181.715293 302.660574 182.5 309.5 174.284072 308.339426 173.5"></polygon>
                <polygon id="Fill-85" points="9 193.404625 5.85615914 193 4 209.595375 7.14384086 210"></polygon>
                <polygon id="Fill-86" points="34.5 192.05 31.2219184 191.5 28.5 207.95 31.7780816 208.5"></polygon>
                <polygon id="Fill-87" points="61.5 196.116979 58.6434124 195.5 55.5 209.882248 58.3565876 210.5"></polygon>
                <polygon id="Fill-88" points="87.5 196.251882 85.0086155 195.5 81.5 209.747318 83.9913845 210.5"></polygon>
                <polygon id="Fill-89" points="118.5 196.389 115.60575 195.5 110.5 209.611831 113.393348 210.5"></polygon>
                <polygon id="Fill-90" points="146.5 197.388031 143.986804 196.5 138.5 208.611969 141.014043 209.5"></polygon>
                <polygon id="Fill-91" points="171.5 197.503903 169.326696 196.5 163.5 208.496097 165.672504 209.5"></polygon>
                <polygon id="Fill-92" points="198.5 197.615918 196.633662 196.5 190.5 208.384082 192.366338 209.5"></polygon>
                <polygon id="Fill-93" points="227.5 197.721614 225.911818 196.5 219.5 208.278386 221.088903 209.5"></polygon>
                <polygon id="Fill-94" points="253.5 200.413623 252.161633 199.5 245.5 207.587002 246.838367 208.5"></polygon>
                <polygon id="Fill-95" points="281 201.973831 279.747871 201 272 209.026169 273.251392 210"></polygon>
                <polygon id="Fill-96" points="301 208.974487 302.024808 210 310 202.024808 308.975192 201"></polygon>
                <polygon id="Fill-97" points="7.5 221.008689 3.82179738 220.5 1.5 236.991311 5.17903991 237.5"></polygon>
                <polygon id="Fill-98" points="35.5 223.113453 32.3300587 222.5 29.5 236.886547 32.6699413 237.5"></polygon>
                <polygon id="Fill-99" points="61.5 223.284742 58.7625882 222.5 55.5 236.715258 58.2374118 237.5"></polygon>
                <polygon id="Fill-100" points="90.5 221.459054 87.3500219 220.5 82.5 234.540946 85.6508526 235.5"></polygon>
                <polygon id="Fill-101" points="118.5 224.636442 115.789189 223.5 110.5 237.363558 113.210811 238.5"></polygon>
                <polygon id="Fill-102" points="146.5 225.637908 144.180592 224.5 138.5 236.362092 140.819408 237.5"></polygon>
                <polygon id="Fill-103" points="171.5 225.78831 169.531539 224.5 163.5 236.21169 165.468461 237.5"></polygon>
                <polygon id="Fill-104" points="198.5 225.932745 196.847669 224.5 190.5 236.068118 192.151644 237.5"></polygon>
                <polygon id="Fill-105" points="224 229.084162 222.460623 228 215 235.915838 216.539377 237"></polygon>
                <polygon id="Fill-106" points="254 229.169139 252.745209 228 245 235.830861 246.254791 237"></polygon>
                <polygon id="Fill-107" points="280 229.243392 278.997042 228 271 235.757337 272.002958 237"></polygon>
                <polygon id="Fill-108" points="301.5 235.340028 302.284707 236.5 310.5 229.660677 309.715928 228.5"></polygon>
                <polygon id="Fill-109" points="7.5 247.126369 3.90215578 246.5 1.5 262.873631 5.09784422 263.5"></polygon>
                <polygon id="Fill-110" points="35.5 248.258782 32.4223562 247.5 29.5 261.740448 32.5776438 262.5"></polygon>
                <polygon id="Fill-111" points="62.5 250.47508 58.9872154 249.5 54.5 263.52492 58.0127846 264.5"></polygon>
                <polygon id="Fill-112" points="90.5 250.696365 87.5007013 249.5 82.5 263.302793 85.4992987 264.5"></polygon>
                <polygon id="Fill-113" points="117.5 251.732151 114.954205 250.5 109.5 262.267083 112.046544 263.5"></polygon>
                <polygon id="Fill-114" points="146.5 251.926583 144.357935 250.5 138.5 262.073417 140.642065 263.5"></polygon>
                <polygon id="Fill-115" points="171.5 252.11579 169.720671 250.5 163.5 261.88421 165.279329 263.5"></polygon>
                <polygon id="Fill-116" points="199 254.2421 197.363443 253 190 260.757267 191.635849 262"></polygon>
                <polygon id="Fill-117" points="224 254.358285 222.68855 253 215 260.642397 216.31145 262"></polygon>
                <polygon id="Fill-118" points="252.5 257.800058 251.473236 256.5 243.5 263.199942 244.526764 264.5"></polygon>
                <polygon id="Fill-119" points="282 255.383235 280.956099 254 270 260.616765 271.043091 262"></polygon>
                <polygon id="Fill-120" points="299 260.543689 299.771357 262 311 255.456311 310.229414 254"></polygon>
                <polygon id="Fill-121" points="7.5 279.257908 3.9710076 278.5 1.5 294.742939 5.0289924 295.5"></polygon>
                <polygon id="Fill-122" points="33.5 277.423834 29.5043328 276.5 25.5 290.576166 29.4939341 291.5"></polygon>
                <polygon id="Fill-123" points="62.5 277.690242 59.1105347 276.5 54.5 290.308939 57.8894653 291.5"></polygon>
                <polygon id="Fill-124" points="89.5 278.771114 86.6388863 277.5 81.5 289.228886 84.3618549 290.5"></polygon>
                <polygon id="Fill-125" points="117.5 279.012564 115.106932 277.5 109.5 288.986647 111.893068 290.5"></polygon>
                <polygon id="Fill-126" points="144 279.753082 141.778602 278 135 289.246918 137.220665 291"></polygon>
                <polygon id="Fill-127" points="171 283.374127 169.200139 282 162 289.625873 163.799169 291"></polygon>
                <polygon id="Fill-128" points="199 285.525606 197.574738 284 190 291.474394 191.425262 293"></polygon>
                <polygon id="Fill-129" points="224 285.667623 222.901499 284 215 291.331639 216.099123 293"></polygon>
                <polygon id="Fill-130" points="256 284.599854 254.905801 283 244 289.399417 245.093412 291"></polygon>
                <polygon id="Fill-131" points="282 285.71246 281.213188 284 270 290.28754 270.787558 292"></polygon>
                <polygon id="Fill-132" points="296 289.631353 296.54114 291 308 286.367931 307.458151 285"></polygon>
                <polygon id="Fill-133" points="8.5 300.403419 3.87657737 299.5 0.5 315.597436 5.12342263 316.5"></polygon>
                <polygon id="Fill-134" points="33.5 304.606745 29.6012607 303.5 25.5 317.393255 29.3979324 318.5"></polygon>
                <polygon id="Fill-135" points="62.5 306.932458 59.222408 305.5 54.5 319.067542 57.7768488 320.5"></polygon>
                <polygon id="Fill-136" points="89.5 308.032914 86.7679389 306.5 81.5 317.967086 84.2320611 319.5"></polygon>
                <polygon id="Fill-137" points="118 306.826843 115.47191 305 109 316.173157 111.52809 318"></polygon>
                <polygon id="Fill-138" points="144 310.115934 141.96105 308 135 318.883194 137.03895 321"></polygon>
                <polygon id="Fill-139" points="171 308.658636 169.396437 307 162 314.342019 163.60421 316"></polygon>
                <polygon id="Fill-140" points="198.5 310.342497 196.868346 308.5 186.5 315.657503 188.131654 317.5"></polygon>
                <polygon id="Fill-141" points="228 312.795042 226.799614 311 216 317.204958 217.201159 319"></polygon>
                <polygon id="Fill-142" points="253 313.952157 252.153199 312 241 318.047843 241.846801 320"></polygon>
                <polygon id="Fill-143" points="282 313.590544 281.433251 312 270 316.409456 270.566749 318"></polygon>
                <polygon id="Fill-144" points="294.5 316.756763 294.94339 318.5 309.5 314.241483 309.05661 312.5"></polygon>
                <polygon id="Fill-145" points="1.5 345.560694 6.04939359 346.5 9.5 332.439306 4.94977713 331.5"></polygon>
                <polygon id="Fill-146" points="33.5 332.809047 29.6908 331.5 25.5 345.190953 29.3099556 346.5"></polygon>
                <polygon id="Fill-147" points="62.5 333.199582 59.3292556 331.5 54.5 344.800418 57.671441 346.5"></polygon>
                <polygon id="Fill-148" points="90 333.822481 87.0661211 332 81 343.178299 83.9331497 345"></polygon>
                <polygon id="Fill-149" points="118 336.172105 115.633809 334 109 344.827895 111.366191 347"></polygon>
                <polygon id="Fill-150" points="145 337.742077 143.140129 336 136 343.258551 137.859227 345"></polygon>
                <polygon id="Fill-151" points="171.5 339.47212 169.61593 337.5 159.5 344.528571 161.383259 346.5"></polygon>
                <polygon id="Fill-152" points="198 338.951959 196.624609 337 186 343.047353 187.375391 345"></polygon>
                <polygon id="Fill-153" points="228 342.155092 227.042114 340 216 345.844117 216.957886 348"></polygon>
                <polygon id="Fill-154" points="256.5 340.285831 255.714888 338.5 241.5 342.714169 242.285967 344.5"></polygon>
                <polygon id="Fill-155" points="280.5 343.498268 280.022991 341.5 265.5 345.500866 265.977009 347.5"></polygon>
                <polygon id="Fill-156" points="294 345.072541 294.256722 347 309 343.929358 308.742519 342"></polygon>
                <polygon id="Fill-157" points="1.5 371.406066 5.98415098 372.5 9.5 358.593934 5.01584902 357.5"></polygon>
                <polygon id="Fill-158" points="33.5 362.03157 29.7738265 360.5 25.5 373.96843 29.2261735 375.5"></polygon>
                <polygon id="Fill-159" points="64 361.727773 60.5472674 360 55 371.272227 58.4527326 373"></polygon>
                <polygon id="Fill-160" points="87 362.138383 84.2042377 360 78 370.861617 80.7957623 373"></polygon>
                <polygon id="Fill-161" points="115 362.548479 112.794428 360 106 370.451521 108.205572 373"></polygon>
                <polygon id="Fill-162" points="145.5 363.542182 143.258527 361.5 133.5 368.457818 135.740661 370.5"></polygon>
                <polygon id="Fill-163" points="171.5 367.815186 169.863253 365.5 159.5 372.185547 161.13598 374.5"></polygon>
                <polygon id="Fill-164" points="198 368.305237 196.865686 366 186 371.694017 187.133591 374"></polygon>
                <polygon id="Fill-165" points="225.5 369.082015 224.57805 366.5 210.5 371.917985 211.42195 374.5"></polygon>
                <polygon id="Fill-166" points="254.5 369.699836 253.950027 367.5 239.5 371.300164 240.049172 373.5"></polygon>
                <polygon id="Fill-167" points="283 370.163636 282.675491 368 266 370.836364 266.324509 373"></polygon>
                <polygon id="Fill-168" points="293 370.440752 293.126782 371 310 370.559248 309.874021 370"></polygon>
                <polygon id="Fill-169" points="1.5 400.237005 5.92281817 401.5 9.5 387.762995 5.07718183 386.5"></polygon>
                <polygon id="Fill-170" points="25.5 399.726589 29.1471874 401.5 33.5 388.273411 29.8514672 386.5"></polygon>
                <polygon id="Fill-171" points="55 398.996107 58.3407978 401 64 390.003893 60.6592022 388"></polygon>
                <polygon id="Fill-172" points="78 399.52048 80.6569375 402 87 391.47952 84.3424091 389"></polygon>
                <polygon id="Fill-173" points="107.5 399.547915 110.225188 402.5 119.5 392.452972 116.774812 389.5"></polygon>
                <polygon id="Fill-174" points="133.5 398.134313 135.505793 400.5 145.5 393.867054 143.49498 391.5"></polygon>
                <polygon id="Fill-175" points="159 398.606725 160.396941 401 171 395.392582 169.603059 393"></polygon>
                <polygon id="Fill-176" points="186 398.289189 186.909153 401 198 395.710811 197.090847 393"></polygon>
                <polygon id="Fill-177" points="213.5 400.169271 214.176183 402.5 228.5 398.829972 227.823817 396.5"></polygon>
                <polygon id="Fill-178" points="240 397.690452 240.349469 400 255 397.309548 254.650531 395"></polygon>
                <polygon id="Fill-179" points="265 399.399407 265.149833 400 282 399.600346 281.849366 399"></polygon>
                <polygon id="Fill-180" points="292 399 311 399 311 398 292 398"></polygon>
            </g>
        </g>
    </g>
</svg>